<?xml version="1.0" encoding="utf-8"?>
<!-- Generator: Adobe Illustrator 19.2.1, SVG Export Plug-In . SVG Version: 6.00 Build 0)  -->
<svg version="1.1" id="icons" xmlns="http://www.w3.org/2000/svg" xmlns:xlink="http://www.w3.org/1999/xlink" x="0px" y="0px"
	 viewBox="0 0 53.4 53.5" style="enable-background:new 0 0 53.4 53.5;" xml:space="preserve">
<style type="text/css">
	.st0{fill:#424242;}
</style>
<path class="st0" d="M42.1,6.3c-2.8,0-5,2.2-5,5c0,2.8,2.2,5,5,5s5-2.2,5-5C47.1,8.6,44.9,6.3,42.1,6.3z M42.1,14.3
	c-1.7,0-3-1.3-3-3s1.3-3,3-3s3,1.3,3,3S43.7,14.3,42.1,14.3z M51.8,2.1C50.4,0.6,48.3-0.2,46,0L31.2,1.5c-1.8,0.2-4,1.2-5.1,2.2
	L1.6,28.2c-1.9,1.9-2.1,4.9-0.4,6.6l17.5,17.5c0.7,0.7,1.7,1.1,2.8,1.1c1.3,0,2.6-0.6,3.6-1.5l24.5-24.5c1.1-1.1,2.2-3.2,2.3-4.7
	l1.5-15.4C53.6,5.4,53,3.5,51.8,2.1z M23.7,50.5c-0.6,0.6-1.4,0.9-2.2,0.9c-0.4,0-1-0.1-1.4-0.6L2.6,33.4c-0.9-0.9-0.7-2.6,0.4-3.8
	l4-4l20.8,20.8L23.7,50.5z M51.4,7.2l-1.5,15.4c-0.1,1-0.9,2.7-1.7,3.5l-19,19L8.4,24.2L27.5,5.2c0.8-0.8,2.6-1.5,3.9-1.7L46.2,2
	c0.2,0,0.4,0,0.6,0c1.4,0,2.6,0.5,3.5,1.5C51.2,4.4,51.6,5.8,51.4,7.2z"/>
</svg>
