<?xml version="1.0" encoding="utf-8"?>
<!-- Generator: Adobe Illustrator 19.2.1, SVG Export Plug-In . SVG Version: 6.00 Build 0)  -->
<svg version="1.1" id="icons" xmlns="http://www.w3.org/2000/svg" xmlns:xlink="http://www.w3.org/1999/xlink" x="0px" y="0px"
	 viewBox="0 0 54 54" style="enable-background:new 0 0 54 54;" xml:space="preserve">
<style type="text/css">
	.st0{fill:#424242;}
</style>
<path class="st0" d="M12.5,11.1l-2-6.6c-1-3.8-3.7-4.6-5-4.5H1.3c-0.6,0-1,0.4-1,1c0,0.6,0.4,1,1,1h4.3c0.2,0,2.2,0,3,3l2,6.6
	c0.1,0.4,0.5,0.7,1,0.7c0.1,0,0.2,0,0.3,0C12.4,12.2,12.7,11.6,12.5,11.1z M42.3,44c-2.8,0-5,2.2-5,5c0,2.8,2.2,5,5,5s5-2.2,5-5
	C47.3,46.2,45.1,44,42.3,44z M42.3,52c-1.7,0-3-1.3-3-3s1.3-3,3-3s3,1.3,3,3S44,52,42.3,52z M18.4,36c0.1,0,0.2,0,0.2-0.1
	c0.2,0,0.4,0.1,0.7,0.1h24c1.5,0,3.1-1.1,3.7-2.5l6.5-16.3c0.3-0.8,0.3-1.6-0.2-2.2c-0.4-0.6-1.2-1-2-1h-37c-0.8,0-1.6,0.3-2.1,1
	c-0.5,0.6-0.6,1.4-0.4,2.2l4,16.1c0.1,0.5,0.4,1,0.7,1.4c-0.8,0.5-1.6,1.4-2.2,3c-0.3,0.7-0.3,1.9,0.4,2.8c0.5,0.7,1.5,1.5,3.6,1.5
	h29c0.6,0,1-0.4,1-1c0-0.6-0.4-1-1-1h-29c-0.7,0-1.6-0.1-1.9-0.6c-0.3-0.4-0.2-0.8-0.1-1C17,36.2,18.3,36,18.4,36z M13.8,16.7
	c-0.1-0.2,0-0.4,0.1-0.5c0.1-0.1,0.3-0.2,0.5-0.2h37c0.2,0,0.3,0.1,0.4,0.1c0,0.1,0,0.2,0,0.4l-6.5,16.3C44.9,33.4,44,34,43.3,34
	h-24c-0.6,0-1.4-0.6-1.5-1.2L13.8,16.7z M18.3,44c-2.8,0-5,2.2-5,5c0,2.8,2.2,5,5,5s5-2.2,5-5C23.3,46.2,21.1,44,18.3,44z M18.3,52
	c-1.7,0-3-1.3-3-3s1.3-3,3-3s3,1.3,3,3S20,52,18.3,52z"/>
</svg>
