<?xml version="1.0" encoding="utf-8"?>
<!-- Generator: Adobe Illustrator 19.2.1, SVG Export Plug-In . SVG Version: 6.00 Build 0)  -->
<svg version="1.1" id="icons" xmlns="http://www.w3.org/2000/svg" xmlns:xlink="http://www.w3.org/1999/xlink" x="0px" y="0px"
	 viewBox="0 0 54 54" style="enable-background:new 0 0 54 54;" xml:space="preserve">
<style type="text/css">
	.st0{fill:#424242;}
</style>
<path class="st0" d="M34,48H20c-0.6,0-1,0.4-1,1s0.4,1,1,1h2.1c0.5,2.3,2.5,4,4.9,4c2.4,0,4.4-1.7,4.9-4H34c0.6,0,1-0.4,1-1
	S34.6,48,34,48z M27,52c-1.3,0-2.4-0.8-2.8-2h5.6C29.4,51.2,28.3,52,27,52z M27,0C17.1,0,9,8.1,9,18c0,4.8,1.9,9.3,5.3,12.7l0.1,0.1
	c0,0,3.6,2.7,3.6,9.2v2h18v-2c0-6.4,3.5-9,3.6-9.2l0.1-0.1C43.1,27.3,45,22.8,45,18C45,8.1,36.9,0,27,0z M38.3,29.3
	C37.8,29.7,34,33,34,40h-6V24.4l4.7-4.7c0.4-0.4,0.4-1,0-1.4c-0.4-0.4-1-0.4-1.4,0L27,22.6l-4.3-4.3c-0.4-0.4-1-0.4-1.4,0
	c-0.4,0.4-0.4,1,0,1.4l4.7,4.7V40h-6c0-7-3.8-10.3-4.3-10.7c-3-3-4.7-7-4.7-11.3c0-8.8,7.2-16,16-16c8.8,0,16,7.2,16,16
	C43,22.3,41.3,26.3,38.3,29.3z M35,44H19c-0.6,0-1,0.4-1,1s0.4,1,1,1h16c0.6,0,1-0.4,1-1S35.6,44,35,44z"/>
</svg>
