<?xml version="1.0" encoding="utf-8"?>
<!-- Generator: Adobe Illustrator 19.2.1, SVG Export Plug-In . SVG Version: 6.00 Build 0)  -->
<svg version="1.1" id="icons" xmlns="http://www.w3.org/2000/svg" xmlns:xlink="http://www.w3.org/1999/xlink" x="0px" y="0px"
	 viewBox="0 0 54 54" style="enable-background:new 0 0 54 54;" xml:space="preserve">
<style type="text/css">
	.st0{fill:#424242;}
</style>
<g>
	<path class="st0" d="M25.3,41.7c0.2,0.2,0.5,0.3,0.7,0.3c0.3,0,0.6-0.1,0.8-0.3c0.3-0.4,8.5-9.7,13-20c1-2.1,1.5-4.3,1.5-6.5
		C41.2,6.8,34.4,0,25.9,0c-8.4,0-15.3,6.8-15.3,15.2c0,2.3,0.5,4.5,1.5,6.5C16.6,32,24.9,41.3,25.3,41.7z M25.9,2
		c7.3,0,13.3,5.9,13.3,13.2c0,2-0.4,3.8-1.3,5.7c-3.6,8.2-9.8,16.1-11.9,18.6c-2.2-2.6-8.4-10.4-12-18.7c-0.8-1.8-1.3-3.7-1.3-5.6
		C12.7,7.9,18.6,2,25.9,2z"/>
	<path class="st0" d="M25.9,22.2c4,0,7.2-3.2,7.2-7.2c0-4-3.2-7.2-7.2-7.2c-4,0-7.2,3.2-7.2,7.2C18.7,19,22,22.2,25.9,22.2z
		 M25.9,9.8c2.9,0,5.2,2.3,5.2,5.2s-2.3,5.2-5.2,5.2s-5.2-2.3-5.2-5.2S23.1,9.8,25.9,9.8z"/>
	<path class="st0" d="M52,52.7l-6-23c-0.1-0.3-0.3-0.6-0.6-0.7l-5-2l-0.7,1.9l4.5,1.8l5.3,20.4l-10-5c-0.3-0.1-0.6-0.1-0.9,0
		L26,51.9l-12.6-5.8c-0.3-0.1-0.6-0.1-0.9,0l-10,5l5.3-20.4l4.5-1.8l-0.7-1.9l-5,2c-0.3,0.1-0.5,0.4-0.6,0.7l-6,23
		c-0.1,0.4,0,0.8,0.3,1c0.3,0.2,0.7,0.3,1.1,0.1L13,48.1l12.6,5.8c0.3,0.1,0.6,0.1,0.8,0L39,48.1l11.6,5.8C50.7,54,50.8,54,51,54
		c0.2,0,0.4-0.1,0.6-0.2C51.9,53.5,52.1,53.1,52,52.7z"/>
</g>
</svg>
