<?xml version="1.0" encoding="utf-8"?>
<!-- Generator: Adobe Illustrator 19.2.1, SVG Export Plug-In . SVG Version: 6.00 Build 0)  -->
<svg class="picSvg" version="1.1" id="icons" xmlns="http://www.w3.org/2000/svg" xmlns:xlink="http://www.w3.org/1999/xlink" x="0px" y="0px"
	 viewBox="0 0 54 54" style="enable-background:new 0 0 54 54;" xml:space="preserve">
<path class="picSvg" d="M49,0H13c-2.8,0-5,2.2-5,5v5H5c-2.8,0-5,2.2-5,5v34c0,2.8,2.2,5,5,5h36c2.8,0,5-2.2,5-5v-6h3c2.8,0,5-2.2,5-5V5
	C54,2.2,51.8,0,49,0z M44,49c0,1.7-1.3,3-3,3H5c-1.7,0-3-1.3-3-3V15c0-1.7,1.3-3,3-3h36c1.7,0,3,1.3,3,3V49z M52,38c0,1.7-1.3,3-3,3
	h-3V15c0-2.8-2.2-5-5-5H10V5c0-1.7,1.3-3,3-3h36c1.7,0,3,1.3,3,3V38z M32,27c2.8,0,5-2.2,5-5c0-2.8-2.2-5-5-5s-5,2.2-5,5
	C27,24.8,29.2,27,32,27z M32,19c1.7,0,3,1.3,3,3s-1.3,3-3,3s-3-1.3-3-3S30.3,19,32,19z M33.2,35.5c-1.2-1-3.1-1-4.4,0l-3.8,3.1
	l-6.9-6.9c-1.2-1.2-3.1-1.2-4.3-0.1l-9.5,8.7c-0.4,0.4-0.4,1-0.1,1.4c0.4,0.4,1,0.4,1.4,0.1l9.5-8.7c0.4-0.4,1.1-0.4,1.5,0
	l13.6,13.6c0.2,0.2,0.5,0.3,0.7,0.3s0.5-0.1,0.7-0.3c0.4-0.4,0.4-1,0-1.4l-5.2-5.2l3.6-3c0.5-0.4,1.4-0.4,1.8,0l8.4,6.8
	c0.2,0.1,0.4,0.2,0.6,0.2c0.3,0,0.6-0.1,0.8-0.4c0.3-0.4,0.3-1.1-0.2-1.4L33.2,35.5z"/>
</svg>
