<?xml version="1.0" encoding="utf-8"?>
<!-- Generator: Adobe Illustrator 19.2.1, SVG Export Plug-In . SVG Version: 6.00 Build 0)  -->
<svg version="1.1" id="icons" xmlns="http://www.w3.org/2000/svg" xmlns:xlink="http://www.w3.org/1999/xlink" x="0px" y="0px"
	 viewBox="0 0 54 54" style="enable-background:new 0 0 54 54;" xml:space="preserve">
<style type="text/css">
	.st0{fill:#424242;}
</style>
<g>
	<path class="st0" d="M49,0H5C2.2,0,0,2.2,0,5v33c0,2.8,2.2,5,5,5h44c2.8,0,5-2.2,5-5V5C54,2.2,51.8,0,49,0z M5,2h44
		c1.7,0,3,1.3,3,3v26H2V5C2,3.3,3.3,2,5,2z M49,41H5c-1.7,0-3-1.3-3-3v-5h50v5C52,39.7,50.7,41,49,41z"/>
	<path class="st0" d="M35,47.6V45h-2v3c0,0.2,0.1,0.4,0.2,0.6l2.7,3.4H18.1l2.7-3.4c0.1-0.2,0.2-0.4,0.2-0.6v-3h-2v2.6l-2.5,3.2
		c-0.6,0.7-0.7,1.5-0.4,2.2c0.3,0.7,1,1,1.9,1h18c0.9,0,1.6-0.4,1.9-1c0.3-0.7,0.2-1.4-0.4-2.2L35,47.6z"/>
</g>
</svg>
